<mxfile host="app.diagrams.net" modified="2022-08-31T04:22:38.145Z" agent="5.0 (iPad; CPU OS 15_6 like Mac OS X) AppleWebKit/605.1.15 (KHTML, like Gecko) CriOS/104.0.5112.99 Mobile/15E148 Safari/604.1" etag="uaUDqMbTAnxVqoPQfzvo" version="20.2.7" type="github">
  <diagram id="GD3AwLWaGO-kLIcduMpC" name="Page-1">
    <mxGraphModel dx="1240" dy="956" grid="1" gridSize="10" guides="1" tooltips="1" connect="1" arrows="1" fold="1" page="1" pageScale="1" pageWidth="827" pageHeight="1169" math="0" shadow="0">
      <root>
        <mxCell id="0" />
        <mxCell id="1" parent="0" />
        <mxCell id="hP0XE3RtAWMU6OfMQMPc-1" value="&lt;h1 style=&quot;text-align: start; box-sizing: border-box; margin-right: 0px; margin-bottom: 16px; margin-left: 0px; line-height: 1.25; padding-bottom: 0.3em; border-bottom: 1px solid var(--color-border-muted); caret-color: rgb(36, 41, 47); color: rgb(36, 41, 47); font-family: -apple-system, BlinkMacSystemFont, &amp;quot;Segoe UI&amp;quot;, Helvetica, Arial, sans-serif, &amp;quot;Apple Color Emoji&amp;quot;, &amp;quot;Segoe UI Emoji&amp;quot;; -webkit-text-size-adjust: 100%; margin-top: 0px !important;&quot; dir=&quot;auto&quot;&gt;Wake up&lt;/h1&gt;" style="rounded=1;whiteSpace=wrap;html=1;" vertex="1" parent="1">
          <mxGeometry x="270" y="30" width="120" height="50" as="geometry" />
        </mxCell>
        <mxCell id="hP0XE3RtAWMU6OfMQMPc-2" value="&lt;h1 style=&quot;text-align: start; box-sizing: border-box; margin: 24px 0px 16px; line-height: 1.25; padding-bottom: 0.3em; border-bottom: 1px solid var(--color-border-muted); caret-color: rgb(36, 41, 47); color: rgb(36, 41, 47); font-family: -apple-system, BlinkMacSystemFont, &amp;quot;Segoe UI&amp;quot;, Helvetica, Arial, sans-serif, &amp;quot;Apple Color Emoji&amp;quot;, &amp;quot;Segoe UI Emoji&amp;quot;; -webkit-text-size-adjust: 100%;&quot; dir=&quot;auto&quot;&gt;Take a shower&lt;/h1&gt;" style="rounded=0;whiteSpace=wrap;html=1;" vertex="1" parent="1">
          <mxGeometry x="270" y="140" width="120" height="60" as="geometry" />
        </mxCell>
        <mxCell id="hP0XE3RtAWMU6OfMQMPc-7" value="" style="endArrow=classic;html=1;rounded=0;exitX=0.5;exitY=1;exitDx=0;exitDy=0;entryX=0.5;entryY=0;entryDx=0;entryDy=0;" edge="1" parent="1" source="hP0XE3RtAWMU6OfMQMPc-1" target="hP0XE3RtAWMU6OfMQMPc-2">
          <mxGeometry width="50" height="50" relative="1" as="geometry">
            <mxPoint x="300" y="240" as="sourcePoint" />
            <mxPoint x="330" y="130" as="targetPoint" />
          </mxGeometry>
        </mxCell>
        <mxCell id="hP0XE3RtAWMU6OfMQMPc-8" value="&lt;h1 style=&quot;text-align: start; box-sizing: border-box; margin: 24px 0px 16px; line-height: 1.25; padding-bottom: 0.3em; border-bottom: 1px solid var(--color-border-muted); caret-color: rgb(36, 41, 47); color: rgb(36, 41, 47); font-family: -apple-system, BlinkMacSystemFont, &amp;quot;Segoe UI&amp;quot;, Helvetica, Arial, sans-serif, &amp;quot;Apple Color Emoji&amp;quot;, &amp;quot;Segoe UI Emoji&amp;quot;; -webkit-text-size-adjust: 100%;&quot; dir=&quot;auto&quot;&gt;Eat breakfast&lt;/h1&gt;" style="rounded=0;whiteSpace=wrap;html=1;" vertex="1" parent="1">
          <mxGeometry x="270" y="260" width="120" height="60" as="geometry" />
        </mxCell>
        <mxCell id="hP0XE3RtAWMU6OfMQMPc-9" value="" style="endArrow=classic;html=1;rounded=0;exitX=0.5;exitY=1;exitDx=0;exitDy=0;" edge="1" parent="1" source="hP0XE3RtAWMU6OfMQMPc-2" target="hP0XE3RtAWMU6OfMQMPc-8">
          <mxGeometry width="50" height="50" relative="1" as="geometry">
            <mxPoint x="300" y="240" as="sourcePoint" />
            <mxPoint x="350" y="190" as="targetPoint" />
          </mxGeometry>
        </mxCell>
        <mxCell id="hP0XE3RtAWMU6OfMQMPc-12" value="&lt;h1 style=&quot;text-align: start; box-sizing: border-box; margin: 24px 0px 16px; line-height: 1.25; padding-bottom: 0.3em; border-bottom: 1px solid var(--color-border-muted); caret-color: rgb(36, 41, 47); color: rgb(36, 41, 47); font-family: -apple-system, BlinkMacSystemFont, &amp;quot;Segoe UI&amp;quot;, Helvetica, Arial, sans-serif, &amp;quot;Apple Color Emoji&amp;quot;, &amp;quot;Segoe UI Emoji&amp;quot;; -webkit-text-size-adjust: 100%;&quot; dir=&quot;auto&quot;&gt;Get in car&lt;/h1&gt;" style="rounded=0;whiteSpace=wrap;html=1;" vertex="1" parent="1">
          <mxGeometry x="270" y="380" width="130" height="60" as="geometry" />
        </mxCell>
        <mxCell id="hP0XE3RtAWMU6OfMQMPc-13" value="" style="endArrow=classic;html=1;rounded=0;exitX=0.5;exitY=1;exitDx=0;exitDy=0;" edge="1" parent="1" source="hP0XE3RtAWMU6OfMQMPc-8">
          <mxGeometry width="50" height="50" relative="1" as="geometry">
            <mxPoint x="290" y="460" as="sourcePoint" />
            <mxPoint x="330" y="380" as="targetPoint" />
          </mxGeometry>
        </mxCell>
        <mxCell id="hP0XE3RtAWMU6OfMQMPc-14" value="&lt;h1 style=&quot;text-align: start; box-sizing: border-box; margin: 24px 0px 16px; line-height: 1.25; padding-bottom: 0.3em; border-bottom: 1px solid var(--color-border-muted); caret-color: rgb(36, 41, 47); color: rgb(36, 41, 47); font-family: -apple-system, BlinkMacSystemFont, &amp;quot;Segoe UI&amp;quot;, Helvetica, Arial, sans-serif, &amp;quot;Apple Color Emoji&amp;quot;, &amp;quot;Segoe UI Emoji&amp;quot;; -webkit-text-size-adjust: 100%;&quot; dir=&quot;auto&quot;&gt;Drive to school&lt;/h1&gt;" style="rounded=0;whiteSpace=wrap;html=1;" vertex="1" parent="1">
          <mxGeometry x="275" y="500" width="120" height="60" as="geometry" />
        </mxCell>
        <mxCell id="hP0XE3RtAWMU6OfMQMPc-15" value="" style="endArrow=classic;html=1;rounded=0;exitX=0.5;exitY=1;exitDx=0;exitDy=0;entryX=0.5;entryY=0;entryDx=0;entryDy=0;" edge="1" parent="1" source="hP0XE3RtAWMU6OfMQMPc-12" target="hP0XE3RtAWMU6OfMQMPc-14">
          <mxGeometry width="50" height="50" relative="1" as="geometry">
            <mxPoint x="280" y="630" as="sourcePoint" />
            <mxPoint x="330" y="490" as="targetPoint" />
          </mxGeometry>
        </mxCell>
        <mxCell id="hP0XE3RtAWMU6OfMQMPc-17" value="&lt;h1 style=&quot;text-align: start; box-sizing: border-box; margin: 24px 0px 16px; line-height: 1.25; padding-bottom: 0.3em; border-bottom: 1px solid var(--color-border-muted); caret-color: rgb(36, 41, 47); color: rgb(36, 41, 47); font-family: -apple-system, BlinkMacSystemFont, &amp;quot;Segoe UI&amp;quot;, Helvetica, Arial, sans-serif, &amp;quot;Apple Color Emoji&amp;quot;, &amp;quot;Segoe UI Emoji&amp;quot;; -webkit-text-size-adjust: 100%;&quot; dir=&quot;auto&quot;&gt;Walk down the car&lt;/h1&gt;" style="rounded=0;whiteSpace=wrap;html=1;" vertex="1" parent="1">
          <mxGeometry x="269" y="620" width="145" height="60" as="geometry" />
        </mxCell>
        <mxCell id="hP0XE3RtAWMU6OfMQMPc-18" value="" style="endArrow=classic;html=1;rounded=0;exitX=0.5;exitY=1;exitDx=0;exitDy=0;" edge="1" parent="1" source="hP0XE3RtAWMU6OfMQMPc-14">
          <mxGeometry width="50" height="50" relative="1" as="geometry">
            <mxPoint x="280" y="630" as="sourcePoint" />
            <mxPoint x="335" y="620" as="targetPoint" />
          </mxGeometry>
        </mxCell>
        <mxCell id="hP0XE3RtAWMU6OfMQMPc-19" value="&lt;h1 style=&quot;text-align: start; box-sizing: border-box; margin: 24px 0px 16px; line-height: 1.25; padding-bottom: 0.3em; border-bottom: 1px solid var(--color-border-muted); caret-color: rgb(36, 41, 47); color: rgb(36, 41, 47); font-family: -apple-system, BlinkMacSystemFont, &amp;quot;Segoe UI&amp;quot;, Helvetica, Arial, sans-serif, &amp;quot;Apple Color Emoji&amp;quot;, &amp;quot;Segoe UI Emoji&amp;quot;; -webkit-text-size-adjust: 100%;&quot; dir=&quot;auto&quot;&gt;Walk to 11 floor&lt;/h1&gt;" style="rounded=0;whiteSpace=wrap;html=1;" vertex="1" parent="1">
          <mxGeometry x="280" y="750" width="120" height="60" as="geometry" />
        </mxCell>
        <mxCell id="hP0XE3RtAWMU6OfMQMPc-20" value="" style="endArrow=classic;html=1;rounded=0;exitX=0.5;exitY=1;exitDx=0;exitDy=0;entryX=0.5;entryY=0;entryDx=0;entryDy=0;" edge="1" parent="1" source="hP0XE3RtAWMU6OfMQMPc-17" target="hP0XE3RtAWMU6OfMQMPc-19">
          <mxGeometry width="50" height="50" relative="1" as="geometry">
            <mxPoint x="270" y="780" as="sourcePoint" />
            <mxPoint x="320" y="730" as="targetPoint" />
          </mxGeometry>
        </mxCell>
        <mxCell id="hP0XE3RtAWMU6OfMQMPc-21" value="&lt;h1 style=&quot;text-align: start; box-sizing: border-box; margin-top: 24px; margin-right: 0px; margin-left: 0px; line-height: 1.25; padding-bottom: 0.3em; border-bottom: 1px solid var(--color-border-muted); caret-color: rgb(36, 41, 47); color: rgb(36, 41, 47); font-family: -apple-system, BlinkMacSystemFont, &amp;quot;Segoe UI&amp;quot;, Helvetica, Arial, sans-serif, &amp;quot;Apple Color Emoji&amp;quot;, &amp;quot;Segoe UI Emoji&amp;quot;; -webkit-text-size-adjust: 100%; margin-bottom: 0px !important;&quot; dir=&quot;auto&quot;&gt;Arrived at Newton&lt;/h1&gt;" style="rounded=1;whiteSpace=wrap;html=1;" vertex="1" parent="1">
          <mxGeometry x="275" y="860" width="135" height="80" as="geometry" />
        </mxCell>
        <mxCell id="hP0XE3RtAWMU6OfMQMPc-22" value="" style="endArrow=classic;html=1;rounded=0;exitX=0.5;exitY=1;exitDx=0;exitDy=0;" edge="1" parent="1" source="hP0XE3RtAWMU6OfMQMPc-19">
          <mxGeometry width="50" height="50" relative="1" as="geometry">
            <mxPoint x="270" y="780" as="sourcePoint" />
            <mxPoint x="340" y="860" as="targetPoint" />
          </mxGeometry>
        </mxCell>
      </root>
    </mxGraphModel>
  </diagram>
</mxfile>
